# xmcd
#
# Track frame offsets:
#	150
#	20297
#	38220
#	56237
#	76610
#	95827
#	115537
#	133975
#
# Disc length: 2448 seconds
#
# Revision: 2
# Processed by: cddbd v1.5.2PL0 Copyright (c) Steve Scherf et al.
# Submitted via: EasyCDDAExtractor 15.3.0.1
#
DISCID=62098e08
DTITLE=Varios Artistas - Reinas Del Merengue
DYEAR=1998
DGENRE=Latin
TTITLE0=Ashley - Todita Tuya
TTITLE1=Melina Leon - Mujeres Liberadas
TTITLE2=Jessica - Te Felicito
TTITLE3=Reinas Del Merengue - Reinas Mega Mix (Radio Edit)
TTITLE4=Milly Quezada - Quizas
TTITLE5=Gisselle - A Que Vuelve
TTITLE6=Olga Tañon - Es Mentiroso
TTITLE7=Reinas Del Merengue - Reinas Mega Mix
EXTD=
EXTT0=
EXTT1=
EXTT2=
EXTT3=
EXTT4=
EXTT5=
EXTT6=
EXTT7=
PLAYORDER=
